<svg width="510" height="787" viewBox="0 0 510 787" fill="none" xmlns="http://www.w3.org/2000/svg">
<path d="M259.367 5.03553C261.018 4.18483 262.86 3.77398 264.716 3.84253C266.572 3.91108 268.379 4.45664 269.963 5.42682C271.547 6.39699 272.854 7.75891 273.759 9.38123C274.663 11.0036 275.134 12.8315 275.126 14.6888L275.126 772.769C275.109 774.689 274.586 776.571 273.608 778.223C272.63 779.875 271.232 781.24 269.557 782.178C267.881 783.116 265.988 783.595 264.068 783.565C262.148 783.536 260.27 782.999 258.624 782.01L8.13137 625.823C6.57016 624.837 5.28264 623.474 4.38846 621.858C3.49428 620.243 3.02212 618.428 3.01568 616.582L3.01569 140.678C3.00922 138.665 3.56111 136.689 4.60979 134.97C5.65847 133.252 7.16291 131.857 8.95625 130.942L259.367 5.03553Z" fill="#D6E8B1" stroke="#C8E486" stroke-width="5.85804" stroke-miterlimit="10"/>
<path d="M336.506 5.03571C338.154 4.20435 339.988 3.80882 341.832 3.88702C343.676 3.96523 345.47 4.5145 347.042 5.48239C348.614 6.45028 349.911 7.80451 350.811 9.41615C351.711 11.0278 352.183 12.8431 352.183 14.689L352.183 74.5896L352.183 696.202L352.183 772.769C352.166 774.689 351.642 776.571 350.664 778.223C349.686 779.875 348.289 781.24 346.613 782.178C344.938 783.116 343.045 783.595 341.125 783.565C339.205 783.536 337.327 782.999 335.681 782.01L280.319 747.522C278.757 746.536 277.47 745.172 276.576 743.557C275.682 741.942 275.21 740.127 275.203 738.281L275.203 42.5766C275.197 40.5632 275.748 38.5876 276.797 36.8689C277.846 35.1502 279.35 33.7559 281.143 32.8407L336.506 5.03571Z" fill="#B6CD86" stroke="#C8E486" stroke-width="5.85804" stroke-miterlimit="10"/>
<path d="M413.491 5.03553C415.142 4.18483 416.984 3.77398 418.84 3.84253C420.696 3.91108 422.504 4.45664 424.087 5.42681C425.671 6.39699 426.978 7.75891 427.883 9.38123C428.787 11.0035 429.258 12.8315 429.25 14.6888L429.25 35.811L429.25 744.304L429.25 772.769C429.233 774.689 428.709 776.571 427.731 778.223C426.753 779.875 425.356 781.24 423.681 782.178C422.005 783.116 420.112 783.595 418.192 783.565C416.272 783.536 414.394 782.999 412.748 782.01L357.385 747.439C355.808 746.471 354.508 745.111 353.612 743.492C352.715 741.873 352.253 740.049 352.27 738.198L352.27 696.202L352.27 74.5894L352.27 42.5764C352.262 40.5524 352.822 38.5668 353.887 36.8456C354.952 35.1243 356.479 33.7367 358.293 32.8406L413.491 5.03553Z" fill="#98B263" stroke="#C8E486" stroke-width="5.85804" stroke-miterlimit="10"/>
<path d="M506.309 14.689L506.309 772.769C506.292 774.689 505.769 776.571 504.791 778.223C503.813 779.875 502.415 781.24 500.74 782.178C499.064 783.116 497.171 783.595 495.251 783.565C493.331 783.536 491.453 782.999 489.807 782.01L434.445 747.522C432.883 746.536 431.596 745.172 430.702 743.557C429.808 741.942 429.336 740.127 429.329 738.281L429.329 42.5766C429.323 40.5632 429.874 38.5876 430.923 36.8689C431.972 35.1502 433.476 33.7559 435.269 32.8407L490.632 5.03571C492.28 4.20435 494.114 3.80882 495.958 3.88702C497.802 3.96523 499.596 4.5145 501.168 5.48239C502.74 6.45028 504.037 7.80451 504.937 9.41615C505.837 11.0278 506.309 12.8431 506.309 14.689Z" fill="#819E45" stroke="#C8E486" stroke-width="5.85804" stroke-miterlimit="10"/>
</svg>
