<svg width="46" height="21" viewBox="0 0 46 21" fill="none" xmlns="http://www.w3.org/2000/svg">
<path d="M31.1563 16.045L31.1565 16.045C32.4984 16.3616 33.3311 17.7218 33.1338 19.1008M31.1563 16.045L33.0339 19.093C33.0075 19.2802 33.1341 19.4521 33.3176 19.4781L41.4368 20.6267C42.694 20.8046 43.8582 19.9104 44.0396 18.6277L45.4293 8.80444C45.6108 7.52175 44.7382 6.33948 43.4832 6.16193L35.4118 5.0201C35.2117 4.99178 35.0161 5.11166 34.9604 5.30991M31.1563 16.045C29.6291 15.6867 28.162 16.7415 27.9438 18.2839M31.1563 16.045L27.9438 18.2839M33.1338 19.1008L33.0349 19.0866L33.1339 19.1006L33.1338 19.1008ZM33.1338 19.1008L33.133 19.107C33.1139 19.2414 33.2047 19.3611 33.3316 19.3791L41.4509 20.5277C42.6514 20.6975 43.7666 19.8436 43.9406 18.6137L45.3303 8.79043C45.5043 7.5606 44.6677 6.4305 43.4691 6.26095L35.3978 5.11911C35.2449 5.09748 35.0983 5.18917 35.0567 5.33676M35.0567 5.33676L34.9604 5.30991M35.0567 5.33676C34.7028 6.60626 33.4749 7.45076 32.1556 7.26413C30.8364 7.0775 29.8909 5.92563 29.9028 4.60785M35.0567 5.33676C35.0567 5.33683 35.0567 5.33689 35.0567 5.33695L34.9604 5.30991M34.9604 5.30991L29.9028 4.60785M29.9028 4.60785C29.904 4.45474 29.7867 4.32532 29.6355 4.30393M29.9028 4.60785L29.6355 4.30393M27.9438 18.2839L27.9432 18.2882M27.9438 18.2839L27.9432 18.2882M27.9432 18.2882C27.9179 18.4676 27.7563 18.5904 27.5839 18.566M27.9432 18.2882L27.5839 18.566M27.5839 18.566L2.71032 15.0472M27.5839 18.566L2.71032 15.0472M2.71032 15.0472C1.50976 14.8773 0.675165 13.7476 0.849155 12.5177M2.71032 15.0472L0.849155 12.5177M0.849155 12.5177L2.23884 2.69438M0.849155 12.5177L2.23884 2.69438M2.23884 2.69438C2.41283 1.46449 3.52805 0.610563 4.7286 0.780404M2.23884 2.69438L4.7286 0.780404M4.7286 0.780404L29.6355 4.30393M4.7286 0.780404L29.6355 4.30393" fill="#D6E8B1" stroke="black" stroke-width="0.2" stroke-miterlimit="10"/>
<path d="M31.832 14.862L31.8321 14.862C33.2052 14.9875 34.2202 16.2177 34.218 17.6107M31.832 14.862L34.118 17.617C34.118 17.806 34.2675 17.9585 34.4528 17.9585H42.6529C43.9225 17.9585 44.95 16.9101 44.95 15.6147V5.69358C44.95 4.39812 43.9204 3.34973 42.6529 3.34973H34.5012C34.2991 3.34973 34.1222 3.49582 34.0948 3.69991M31.832 14.862C30.2696 14.7211 28.9647 15.971 28.9647 17.5289M31.832 14.862L28.9647 17.5289M34.218 17.6107L34.118 17.6105H34.218V17.6107ZM34.218 17.6107V17.617C34.218 17.7527 34.3246 17.8585 34.4528 17.8585H42.6529C43.8654 17.8585 44.85 16.8568 44.85 15.6147V5.69358C44.85 4.4515 43.8634 3.44973 42.6529 3.44973H34.5012C34.3468 3.44973 34.2145 3.56105 34.194 3.71301M34.194 3.71301L34.0948 3.69991M34.194 3.71301C34.0213 5.01957 32.9238 6.02775 31.5914 6.02775C30.259 6.02775 29.1615 5.01967 28.9888 3.71321M34.194 3.71301C34.194 3.71308 34.194 3.71314 34.194 3.7132L34.0948 3.69991M34.0948 3.69991L28.9888 3.71321M28.9888 3.71321C28.9684 3.56145 28.8342 3.44973 28.6815 3.44973M28.9888 3.71321L28.6815 3.44973M28.9647 17.5289V17.5332M28.9647 17.5289V17.5332M28.9647 17.5332C28.9647 17.7144 28.822 17.8585 28.6479 17.8585M28.9647 17.5332L28.6479 17.8585M28.6479 17.8585L3.52661 17.8585M28.6479 17.8585L3.52661 17.8585M3.52661 17.8585C2.3141 17.8585 1.32949 16.8568 1.32949 15.6147M3.52661 17.8585L1.32949 15.6147M1.32949 15.6147V5.69359M1.32949 15.6147V5.69359M1.32949 5.69359C1.32949 4.45145 2.3141 3.44974 3.52661 3.44974M1.32949 5.69359L3.52661 3.44974M3.52661 3.44974L28.6815 3.44973M3.52661 3.44974L28.6815 3.44973" fill="white" stroke="black" stroke-width="0.2" stroke-miterlimit="10"/>
<path d="M1.22947 5.29757C1.22947 4.22181 2.10155 3.34973 3.17731 3.34973V17.9585C2.10155 17.9585 1.22947 17.0865 1.22947 16.0107V5.29757Z" fill="black"/>
<path d="M7.27122 9.47872C7.04322 9.47872 6.83172 9.43822 6.63672 9.35722C6.44472 9.27322 6.27672 9.15772 6.13272 9.01072C5.98872 8.86072 5.87772 8.68822 5.79972 8.49322C5.72172 8.29522 5.68272 8.08372 5.68272 7.85872C5.68272 7.63372 5.72172 7.42372 5.79972 7.22872C5.87772 7.03072 5.98872 6.85822 6.13272 6.71122C6.27672 6.56422 6.44472 6.44872 6.63672 6.36472C6.83172 6.28072 7.04322 6.23872 7.27122 6.23872C7.52622 6.23872 7.74672 6.28072 7.93272 6.36472C8.11872 6.44872 8.28372 6.56272 8.42772 6.70672L8.07672 7.05772C7.98372 6.95572 7.86972 6.87622 7.73472 6.81922C7.60272 6.76222 7.44822 6.73372 7.27122 6.73372C7.06422 6.73372 6.88122 6.78172 6.72222 6.87772C6.56322 6.97372 6.43872 7.10572 6.34872 7.27372C6.25872 7.44172 6.21372 7.63672 6.21372 7.85872C6.21372 8.08072 6.25872 8.27722 6.34872 8.44822C6.43872 8.61622 6.56322 8.74822 6.72222 8.84422C6.88122 8.93722 7.06422 8.98372 7.27122 8.98372C7.46322 8.98372 7.62522 8.95522 7.75722 8.89822C7.89222 8.83822 8.00622 8.75722 8.09922 8.65522L8.45022 9.00622C8.30622 9.15322 8.13672 9.26872 7.94172 9.35272C7.74672 9.43672 7.52322 9.47872 7.27122 9.47872ZM8.7545 9.43372V6.19372H9.2495V9.43372H8.7545ZM9.9624 6.87772C9.8784 6.87772 9.8079 6.84922 9.7509 6.79222C9.6969 6.73522 9.6699 6.66472 9.6699 6.58072C9.6699 6.49672 9.6969 6.42622 9.7509 6.36922C9.8079 6.31222 9.8784 6.28372 9.9624 6.28372C10.0494 6.28372 10.1199 6.31222 10.1739 6.36922C10.2279 6.42622 10.2549 6.49672 10.2549 6.58072C10.2549 6.66472 10.2279 6.73522 10.1739 6.79222C10.1199 6.84922 10.0494 6.87772 9.9624 6.87772ZM9.7149 9.43372V7.27372H10.2099V9.43372H9.7149ZM11.6696 9.47872C11.4566 9.47872 11.2631 9.42922 11.0891 9.33022C10.9181 9.23122 10.7831 9.09622 10.6841 8.92522C10.5851 8.75422 10.5356 8.56372 10.5356 8.35372C10.5356 8.14072 10.5851 7.95022 10.6841 7.78222C10.7831 7.61122 10.9181 7.47622 11.0891 7.37722C11.2631 7.27822 11.4566 7.22872 11.6696 7.22872C11.8376 7.22872 11.9936 7.26172 12.1376 7.32772C12.2846 7.39072 12.4091 7.48222 12.5111 7.60222L12.1871 7.93072C12.0611 7.78072 11.8886 7.70572 11.6696 7.70572C11.4866 7.70572 11.3366 7.76572 11.2196 7.88572C11.1026 8.00572 11.0441 8.16172 11.0441 8.35372C11.0441 8.54572 11.1026 8.70172 11.2196 8.82172C11.3366 8.94172 11.4866 9.00172 11.6696 9.00172C11.8886 9.00172 12.0611 8.92672 12.1871 8.77672L12.5111 9.10522C12.4091 9.22522 12.2846 9.31822 12.1376 9.38422C11.9936 9.44722 11.8376 9.47872 11.6696 9.47872ZM12.778 9.43372V6.19372H13.273V8.29072L14.146 7.27372H14.7355L13.8265 8.30872L14.7805 9.43372H14.1505L13.273 8.37622V9.43372H12.778ZM16.7872 9.47872C16.5772 9.47872 16.3867 9.42922 16.2157 9.33022C16.0447 9.22822 15.9082 9.09172 15.8062 8.92072C15.7072 8.74972 15.6577 8.55922 15.6577 8.34922C15.6577 8.13922 15.7072 7.95022 15.8062 7.78222C15.9082 7.61422 16.0447 7.48072 16.2157 7.38172C16.3867 7.27972 16.5772 7.22872 16.7872 7.22872C17.0002 7.22872 17.1922 7.27822 17.3632 7.37722C17.5342 7.47622 17.6692 7.61122 17.7682 7.78222C17.8702 7.95022 17.9212 8.13922 17.9212 8.34922C17.9212 8.55922 17.8702 8.74972 17.7682 8.92072C17.6692 9.09172 17.5342 9.22822 17.3632 9.33022C17.1922 9.42922 17.0002 9.47872 16.7872 9.47872ZM16.7872 9.00172C16.9732 9.00172 17.1232 8.94172 17.2372 8.82172C17.3542 8.69872 17.4127 8.54122 17.4127 8.34922C17.4127 8.16022 17.3542 8.00572 17.2372 7.88572C17.1202 7.76572 16.9702 7.70572 16.7872 7.70572C16.6042 7.70572 16.4542 7.76722 16.3372 7.89022C16.2232 8.01022 16.1662 8.16322 16.1662 8.34922C16.1662 8.54122 16.2232 8.69872 16.3372 8.82172C16.4542 8.94172 16.6042 9.00172 16.7872 9.00172ZM18.2428 9.43372V7.27372H18.7378V7.52122C18.8128 7.42822 18.9058 7.35622 19.0168 7.30522C19.1278 7.25422 19.2493 7.22872 19.3813 7.22872C19.5433 7.22872 19.6873 7.27072 19.8133 7.35472C19.9393 7.43572 20.0383 7.54222 20.1103 7.67422C20.1823 7.80322 20.2183 7.93822 20.2183 8.07922V9.43372H19.7233V8.18722C19.7233 8.04322 19.6768 7.92472 19.5838 7.83172C19.4938 7.73872 19.3768 7.69222 19.2328 7.69222C19.0888 7.69222 18.9703 7.73872 18.8773 7.83172C18.7843 7.92472 18.7378 8.04322 18.7378 8.18722V9.43372H18.2428ZM21.7707 9.43372V7.72372H21.2532V7.27372H21.7707V6.37372H22.2657V7.27372H22.7832V7.72372H22.2657V9.43372H21.7707ZM23.0529 9.43372V6.19372H23.5479V7.52122C23.6229 7.42822 23.7159 7.35622 23.8269 7.30522C23.9379 7.25422 24.0594 7.22872 24.1914 7.22872C24.3534 7.22872 24.4974 7.26472 24.6234 7.33672C24.7494 7.40872 24.8484 7.50922 24.9204 7.63822C24.9924 7.76422 25.0284 7.91122 25.0284 8.07922V9.43372H24.5334V8.18722C24.5334 8.04322 24.4869 7.92472 24.3939 7.83172C24.3039 7.73872 24.1869 7.69222 24.0429 7.69222C23.8989 7.69222 23.7804 7.73872 23.6874 7.83172C23.5944 7.92472 23.5479 8.04322 23.5479 8.18722V9.43372H23.0529ZM26.4449 9.47872C26.2289 9.47872 26.0339 9.43072 25.8599 9.33472C25.6889 9.23572 25.5524 9.10072 25.4504 8.92972C25.3514 8.75872 25.3019 8.56672 25.3019 8.35372C25.3019 8.14072 25.3514 7.95022 25.4504 7.78222C25.5494 7.61122 25.6829 7.47622 25.8509 7.37722C26.0219 7.27822 26.2109 7.22872 26.4179 7.22872C26.6189 7.22872 26.7959 7.27522 26.9489 7.36822C27.1049 7.46122 27.2264 7.58872 27.3134 7.75072C27.4034 7.91272 27.4484 8.09722 27.4484 8.30422C27.4484 8.37022 27.4394 8.44822 27.4214 8.53822H25.8104C25.8464 8.68522 25.9199 8.80222 26.0309 8.88922C26.1419 8.97322 26.2784 9.01522 26.4404 9.01522C26.5514 9.01522 26.6534 8.99572 26.7464 8.95672C26.8424 8.91772 26.9234 8.86072 26.9894 8.78572L27.3044 9.10522C27.1994 9.22822 27.0719 9.32122 26.9219 9.38422C26.7719 9.44722 26.6129 9.47872 26.4449 9.47872ZM26.4089 7.68322C26.2559 7.68322 26.1269 7.72372 26.0219 7.80472C25.9169 7.88272 25.8464 7.99222 25.8104 8.13322H26.9624C26.8994 7.83322 26.7149 7.68322 26.4089 7.68322ZM6.76722 14.4787C6.55422 14.4787 6.36072 14.4292 6.18672 14.3302C6.01572 14.2312 5.88072 14.0962 5.78172 13.9252C5.68272 13.7542 5.63322 13.5637 5.63322 13.3537C5.63322 13.1407 5.68272 12.9502 5.78172 12.7822C5.88072 12.6112 6.01572 12.4762 6.18672 12.3772C6.36072 12.2782 6.55422 12.2287 6.76722 12.2287C6.93522 12.2287 7.09122 12.2617 7.23522 12.3277C7.38222 12.3907 7.50672 12.4822 7.60872 12.6022L7.28472 12.9307C7.15872 12.7807 6.98622 12.7057 6.76722 12.7057C6.58422 12.7057 6.43422 12.7657 6.31722 12.8857C6.20022 13.0057 6.14172 13.1617 6.14172 13.3537C6.14172 13.5457 6.20022 13.7017 6.31722 13.8217C6.43422 13.9417 6.58422 14.0017 6.76722 14.0017C6.98622 14.0017 7.15872 13.9267 7.28472 13.7767L7.60872 14.1052C7.50672 14.2252 7.38222 14.3182 7.23522 14.3842C7.09122 14.4472 6.93522 14.4787 6.76722 14.4787ZM7.8756 14.4337V11.1937H8.3706V14.4337H7.8756ZM9.08349 11.8777C8.99949 11.8777 8.92899 11.8492 8.87199 11.7922C8.81799 11.7352 8.79099 11.6647 8.79099 11.5807C8.79099 11.4967 8.81799 11.4262 8.87199 11.3692C8.92899 11.3122 8.99949 11.2837 9.08349 11.2837C9.17049 11.2837 9.24099 11.3122 9.29499 11.3692C9.34899 11.4262 9.37599 11.4967 9.37599 11.5807C9.37599 11.6647 9.34899 11.7352 9.29499 11.7922C9.24099 11.8492 9.17049 11.8777 9.08349 11.8777ZM8.83599 14.4337V12.2737H9.33099V14.4337H8.83599ZM9.79618 15.3337V12.2737H10.2912V12.5122C10.3692 12.4252 10.4637 12.3562 10.5747 12.3052C10.6887 12.2542 10.8147 12.2287 10.9527 12.2287C11.1477 12.2287 11.3232 12.2797 11.4792 12.3817C11.6382 12.4807 11.7627 12.6157 11.8527 12.7867C11.9457 12.9547 11.9922 13.1452 11.9922 13.3582C11.9922 13.5682 11.9457 13.7587 11.8527 13.9297C11.7627 14.0977 11.6382 14.2312 11.4792 14.3302C11.3232 14.4292 11.1477 14.4787 10.9527 14.4787C10.8147 14.4787 10.6887 14.4547 10.5747 14.4067C10.4637 14.3557 10.3692 14.2867 10.2912 14.1997V15.3337H9.79618ZM10.8717 14.0107C11.0517 14.0107 11.1987 13.9492 11.3127 13.8262C11.4267 13.7032 11.4837 13.5457 11.4837 13.3537C11.4837 13.1587 11.4267 13.0012 11.3127 12.8812C11.1987 12.7582 11.0517 12.6967 10.8717 12.6967C10.6887 12.6967 10.5402 12.7582 10.4262 12.8812C10.3152 13.0012 10.2597 13.1587 10.2597 13.3537C10.2597 13.5457 10.3152 13.7032 10.4262 13.8262C10.5402 13.9492 10.6887 14.0107 10.8717 14.0107ZM13.023 14.4787C12.84 14.4787 12.6705 14.4442 12.5145 14.3752C12.3615 14.3062 12.2325 14.2087 12.1275 14.0827L12.4425 13.7677C12.5895 13.9417 12.786 14.0287 13.032 14.0287C13.257 14.0287 13.3695 13.9642 13.3695 13.8352C13.3695 13.7692 13.3425 13.7182 13.2885 13.6822C13.2345 13.6462 13.164 13.6162 13.077 13.5922C12.993 13.5652 12.903 13.5382 12.807 13.5112C12.714 13.4842 12.624 13.4482 12.537 13.4032C12.453 13.3552 12.384 13.2907 12.33 13.2097C12.276 13.1287 12.249 13.0237 12.249 12.8947C12.249 12.6877 12.3195 12.5257 12.4605 12.4087C12.6045 12.2887 12.7995 12.2287 13.0455 12.2287C13.3935 12.2287 13.659 12.3517 13.842 12.5977L13.527 12.9127C13.401 12.7567 13.236 12.6787 13.032 12.6787C12.825 12.6787 12.7215 12.7372 12.7215 12.8542C12.7215 12.9142 12.7485 12.9607 12.8025 12.9937C12.8565 13.0267 12.9255 13.0552 13.0095 13.0792C13.0965 13.1032 13.1865 13.1302 13.2795 13.1602C13.3755 13.1872 13.4655 13.2262 13.5495 13.2772C13.6365 13.3252 13.707 13.3912 13.761 13.4752C13.815 13.5562 13.842 13.6627 13.842 13.7947C13.842 14.0047 13.7685 14.1712 13.6215 14.2942C13.4745 14.4172 13.275 14.4787 13.023 14.4787ZM15.2995 14.4337V12.7237H14.782V12.2737H15.2995V11.3737H15.7945V12.2737H16.312V12.7237H15.7945V14.4337H15.2995ZM17.5102 14.4787C17.3002 14.4787 17.1097 14.4292 16.9387 14.3302C16.7677 14.2282 16.6312 14.0917 16.5292 13.9207C16.4302 13.7497 16.3807 13.5592 16.3807 13.3492C16.3807 13.1392 16.4302 12.9502 16.5292 12.7822C16.6312 12.6142 16.7677 12.4807 16.9387 12.3817C17.1097 12.2797 17.3002 12.2287 17.5102 12.2287C17.7232 12.2287 17.9152 12.2782 18.0862 12.3772C18.2572 12.4762 18.3922 12.6112 18.4912 12.7822C18.5932 12.9502 18.6442 13.1392 18.6442 13.3492C18.6442 13.5592 18.5932 13.7497 18.4912 13.9207C18.3922 14.0917 18.2572 14.2282 18.0862 14.3302C17.9152 14.4292 17.7232 14.4787 17.5102 14.4787ZM17.5102 14.0017C17.6962 14.0017 17.8462 13.9417 17.9602 13.8217C18.0772 13.6987 18.1357 13.5412 18.1357 13.3492C18.1357 13.1602 18.0772 13.0057 17.9602 12.8857C17.8432 12.7657 17.6932 12.7057 17.5102 12.7057C17.3272 12.7057 17.1772 12.7672 17.0602 12.8902C16.9462 13.0102 16.8892 13.1632 16.8892 13.3492C16.8892 13.5412 16.9462 13.6987 17.0602 13.8217C17.1772 13.9417 17.3272 14.0017 17.5102 14.0017ZM20.7712 14.4787C20.5582 14.4787 20.3647 14.4292 20.1907 14.3302C20.0197 14.2312 19.8847 14.0962 19.7857 13.9252C19.6867 13.7542 19.6372 13.5637 19.6372 13.3537C19.6372 13.1407 19.6867 12.9502 19.7857 12.7822C19.8847 12.6112 20.0197 12.4762 20.1907 12.3772C20.3647 12.2782 20.5582 12.2287 20.7712 12.2287C20.9392 12.2287 21.0952 12.2617 21.2392 12.3277C21.3862 12.3907 21.5107 12.4822 21.6127 12.6022L21.2887 12.9307C21.1627 12.7807 20.9902 12.7057 20.7712 12.7057C20.5882 12.7057 20.4382 12.7657 20.3212 12.8857C20.2042 13.0057 20.1457 13.1617 20.1457 13.3537C20.1457 13.5457 20.2042 13.7017 20.3212 13.8217C20.4382 13.9417 20.5882 14.0017 20.7712 14.0017C20.9902 14.0017 21.1627 13.9267 21.2887 13.7767L21.6127 14.1052C21.5107 14.2252 21.3862 14.3182 21.2392 14.3842C21.0952 14.4472 20.9392 14.4787 20.7712 14.4787ZM22.8256 14.4787C22.6156 14.4787 22.4251 14.4292 22.2541 14.3302C22.0831 14.2282 21.9466 14.0917 21.8446 13.9207C21.7456 13.7497 21.6961 13.5592 21.6961 13.3492C21.6961 13.1392 21.7456 12.9502 21.8446 12.7822C21.9466 12.6142 22.0831 12.4807 22.2541 12.3817C22.4251 12.2797 22.6156 12.2287 22.8256 12.2287C23.0386 12.2287 23.2306 12.2782 23.4016 12.3772C23.5726 12.4762 23.7076 12.6112 23.8066 12.7822C23.9086 12.9502 23.9596 13.1392 23.9596 13.3492C23.9596 13.5592 23.9086 13.7497 23.8066 13.9207C23.7076 14.0917 23.5726 14.2282 23.4016 14.3302C23.2306 14.4292 23.0386 14.4787 22.8256 14.4787ZM22.8256 14.0017C23.0116 14.0017 23.1616 13.9417 23.2756 13.8217C23.3926 13.6987 23.4511 13.5412 23.4511 13.3492C23.4511 13.1602 23.3926 13.0057 23.2756 12.8857C23.1586 12.7657 23.0086 12.7057 22.8256 12.7057C22.6426 12.7057 22.4926 12.7672 22.3756 12.8902C22.2616 13.0102 22.2046 13.1632 22.2046 13.3492C22.2046 13.5412 22.2616 13.6987 22.3756 13.8217C22.4926 13.9417 22.6426 14.0017 22.8256 14.0017ZM24.2813 15.3337V12.2737H24.7763V12.5122C24.8543 12.4252 24.9488 12.3562 25.0598 12.3052C25.1738 12.2542 25.2998 12.2287 25.4378 12.2287C25.6328 12.2287 25.8083 12.2797 25.9643 12.3817C26.1233 12.4807 26.2478 12.6157 26.3378 12.7867C26.4308 12.9547 26.4773 13.1452 26.4773 13.3582C26.4773 13.5682 26.4308 13.7587 26.3378 13.9297C26.2478 14.0977 26.1233 14.2312 25.9643 14.3302C25.8083 14.4292 25.6328 14.4787 25.4378 14.4787C25.2998 14.4787 25.1738 14.4547 25.0598 14.4067C24.9488 14.3557 24.8543 14.2867 24.7763 14.1997V15.3337H24.2813ZM25.3568 14.0107C25.5368 14.0107 25.6838 13.9492 25.7978 13.8262C25.9118 13.7032 25.9688 13.5457 25.9688 13.3537C25.9688 13.1587 25.9118 13.0012 25.7978 12.8812C25.6838 12.7582 25.5368 12.6967 25.3568 12.6967C25.1738 12.6967 25.0253 12.7582 24.9113 12.8812C24.8003 13.0012 24.7448 13.1587 24.7448 13.3537C24.7448 13.5457 24.8003 13.7032 24.9113 13.8262C25.0253 13.9492 25.1738 14.0107 25.3568 14.0107ZM26.7853 15.3337L27.3253 14.2177L26.5063 12.2737H27.0508L27.6043 13.6822L28.1893 12.2737H28.7383L27.7348 14.4562L27.3343 15.3337H26.7853Z" fill="#1E1F3D"/>
<path d="M31.5144 14.0628C31.5144 14.1524 31.587 14.2251 31.6767 14.2251C31.7663 14.2251 31.839 14.1524 31.839 14.0628L31.5144 14.0628ZM31.5144 6.59607L31.5144 6.89474L31.839 6.89474L31.839 6.59607L31.5144 6.59607ZM31.5144 7.79074L31.5144 8.38808L31.839 8.38808L31.839 7.79074L31.5144 7.79074ZM31.5144 9.28409L31.5144 9.88143L31.839 9.88143L31.839 9.28409L31.5144 9.28409ZM31.5144 10.7774L31.5144 11.3748L31.839 11.3748L31.839 10.7774L31.5144 10.7774ZM31.5144 12.2708L31.5144 12.8681L31.839 12.8681L31.839 12.2708L31.5144 12.2708ZM31.5144 13.7641L31.5144 14.0628L31.839 14.0628L31.839 13.7641L31.5144 13.7641Z" fill="black"/>
<path d="M35.3702 14.4367H42.1707V7.63618H35.3702V14.4367Z" fill="black"/>
</svg>
