<svg width="100" height="19" viewBox="0 0 100 19" fill="none" xmlns="http://www.w3.org/2000/svg">
<g clip-path="url(#clip0_74_12899)">
<path d="M30.0761 15.76C29.3168 15.7669 28.564 15.6199 27.8631 15.3277C27.1969 15.0447 26.594 14.6312 26.09 14.1115C25.586 13.5919 25.191 12.9768 24.9284 12.3022C24.3837 10.8786 24.3837 9.30412 24.9284 7.88056C25.1917 7.20768 25.5879 6.59472 26.0932 6.0782C26.9096 5.28362 27.9407 4.74541 29.0594 4.52997C30.1781 4.31453 31.3354 4.43129 32.3885 4.86582C33.0328 5.15653 33.6186 5.56224 34.1174 6.06307L32.8899 7.29058C32.559 6.92942 32.1534 6.64475 31.7013 6.45639C31.1847 6.24739 30.6311 6.1452 30.074 6.156C29.399 6.14278 28.7337 6.3179 28.1527 6.6617C27.6024 6.99584 27.154 7.47413 26.8561 8.0448C26.5301 8.67685 26.3674 9.3804 26.3828 10.0914C26.3684 10.805 26.531 11.5111 26.8561 12.1466C27.1507 12.7202 27.5998 13.2 28.1527 13.5319C28.7359 13.8693 29.4004 14.0404 30.074 14.0267C30.6581 14.0433 31.2394 13.9388 31.7812 13.7199C32.2328 13.5265 32.638 13.2392 32.9698 12.877L34.1973 14.1046C33.6896 14.6213 33.0853 15.0332 32.4188 15.3169C31.6763 15.6229 30.879 15.7737 30.0761 15.76Z" fill="#231F20"/>
<path d="M35.064 15.5936V4.26074H36.7929V15.5936H35.064Z" fill="#231F20"/>
<path d="M39.0771 6.65526C38.9412 6.65867 38.806 6.63372 38.6803 6.582C38.5545 6.53028 38.4409 6.45292 38.3467 6.35486C38.1589 6.15458 38.0544 5.89033 38.0544 5.61577C38.0544 5.34121 38.1589 5.07696 38.3467 4.87667C38.5433 4.68435 38.8075 4.57666 39.0825 4.57666C39.3576 4.57666 39.6217 4.68435 39.8184 4.87667C40.0006 5.07972 40.1014 5.34293 40.1014 5.61577C40.1014 5.88861 40.0006 6.15182 39.8184 6.35486C39.7229 6.45429 39.6076 6.53245 39.4798 6.58422C39.3521 6.63598 39.2149 6.66019 39.0771 6.65526ZM38.2127 15.5936V8.02972H39.9416V15.5936H38.2127Z" fill="#231F20"/>
<path d="M41.3593 18.7423V8.03835H43.0881V8.87254C43.3672 8.56466 43.7072 8.31813 44.0866 8.14857C44.5006 7.96719 44.9486 7.87654 45.4005 7.88274C46.0554 7.87451 46.6984 8.05779 47.2504 8.41005C47.7978 8.76184 48.2445 9.24956 48.5471 9.82558C48.8638 10.4443 49.029 11.1295 49.029 11.8246C49.029 12.5197 48.8638 13.2049 48.5471 13.8236C48.2456 14.3987 47.7985 14.8845 47.2504 15.2327C46.6963 15.5794 46.0541 15.7594 45.4005 15.7513C44.9493 15.7573 44.5017 15.669 44.0866 15.492C43.7064 15.3278 43.3659 15.0839 43.0881 14.7767V18.7423H41.3593ZM45.1217 14.1154C45.4104 14.1244 45.6976 14.0711 45.9639 13.9593C46.2301 13.8474 46.4692 13.6795 46.6648 13.4671C47.0512 13.0015 47.2628 12.4156 47.2628 11.8106C47.2628 11.2055 47.0512 10.6196 46.6648 10.1541C46.2538 9.74562 45.6979 9.51637 45.1185 9.51637C44.5391 9.51637 43.9832 9.74562 43.5722 10.1541C43.1908 10.6219 42.9825 11.207 42.9825 11.8106C42.9825 12.4141 43.1908 12.9992 43.5722 13.4671C43.7681 13.6809 44.0081 13.8497 44.2757 13.9617C44.5432 14.0736 44.8319 14.1261 45.1217 14.1154Z" fill="#231F20"/>
<path d="M49.9691 18.7423V8.03835H51.698V8.87254C51.9782 8.56498 52.3188 8.31853 52.6986 8.14857C53.1126 7.96719 53.5606 7.87654 54.0126 7.88274C54.6683 7.87498 55.3121 8.05901 55.8646 8.41222C56.412 8.76401 56.8587 9.25172 57.1613 9.82774C57.4767 10.4469 57.6411 11.1319 57.6411 11.8268C57.6411 12.5216 57.4767 13.2066 57.1613 13.8258C56.8598 14.4008 56.4127 14.8867 55.8646 15.2348C55.3104 15.5813 54.6683 15.7613 54.0147 15.7535C53.5635 15.7595 53.1159 15.6711 52.7008 15.4942C52.3202 15.3295 51.9791 15.0856 51.7002 14.7788V18.7423H49.9691ZM53.7316 14.1154C54.0203 14.1244 54.3075 14.0711 54.5737 13.9593C54.84 13.8474 55.079 13.6795 55.2746 13.4671C55.6611 13.0015 55.8726 12.4156 55.8726 11.8106C55.8726 11.2055 55.6611 10.6196 55.2746 10.1541C54.8633 9.74549 54.3071 9.51618 53.7273 9.51618C53.1475 9.51618 52.5913 9.74549 52.1799 10.1541C51.7985 10.6219 51.5902 11.207 51.5902 11.8106C51.5902 12.4141 51.7985 12.9992 52.1799 13.4671C52.3764 13.6808 52.6168 13.8494 52.8847 13.9613C53.1526 14.0732 53.4415 14.1258 53.7316 14.1154Z" fill="#231F20"/>
<path d="M59.4607 6.65526C59.3244 6.65871 59.1889 6.63378 59.0628 6.58207C58.9367 6.53036 58.8227 6.45298 58.7281 6.35486C58.5403 6.15458 58.4358 5.89033 58.4358 5.61577C58.4358 5.34121 58.5403 5.07696 58.7281 4.87667C58.9247 4.68435 59.1889 4.57666 59.4639 4.57666C59.739 4.57666 60.0031 4.68435 60.1998 4.87667C60.382 5.07972 60.4828 5.34293 60.4828 5.61577C60.4828 5.88861 60.382 6.15182 60.1998 6.35486C60.1047 6.45424 59.9898 6.53238 59.8624 6.58415C59.735 6.63593 59.5981 6.66016 59.4607 6.65526ZM58.5962 15.5936V8.02972H60.3251V15.5936H58.5962Z" fill="#231F20"/>
<path d="M61.7428 15.5935V8.02967H63.4717V8.89412C63.7336 8.56984 64.0672 8.31089 64.4464 8.13773C64.8472 7.95807 65.2822 7.86739 65.7214 7.87192C66.2575 7.86205 66.7843 8.01256 67.2342 8.30414C67.6671 8.58494 68.0236 8.96885 68.2715 9.42143C68.5182 9.85564 68.6485 10.3462 68.6497 10.8456V15.5827H66.9208V11.2346C66.9288 11.0058 66.8905 10.7778 66.808 10.5642C66.7256 10.3507 66.6007 10.156 66.4411 9.99196C66.28 9.82956 66.0869 9.7023 65.8742 9.61824C65.6614 9.53418 65.4335 9.49513 65.2049 9.50355C64.9757 9.49539 64.7472 9.53453 64.5338 9.61853C64.3203 9.70253 64.1265 9.82959 63.9643 9.99179C63.8021 10.154 63.675 10.3478 63.591 10.5613C63.507 10.7747 63.4679 11.0032 63.476 11.2324V15.5914L61.7428 15.5935Z" fill="#231F20"/>
<path d="M72.9633 15.4358C72.3231 15.4445 71.6933 15.273 71.1458 14.9409C70.606 14.6101 70.1655 14.1397 69.8708 13.5794C69.556 12.9801 69.3969 12.3113 69.4083 11.6344C69.3971 10.9658 69.5562 10.3054 69.8708 9.71536C70.1691 9.16162 70.6091 8.69699 71.1458 8.36898C71.6933 8.03687 72.3231 7.86539 72.9633 7.8741C73.4221 7.86792 73.8776 7.95313 74.3032 8.12478C74.685 8.28364 75.0241 8.53018 75.293 8.84443V8.0405H77.0219V15.2824C77.0372 15.9494 76.8618 16.6069 76.5162 17.1777C76.1762 17.7223 75.6913 18.1616 75.1158 18.4462C74.4694 18.7605 73.7576 18.9168 73.0389 18.9022C72.3171 18.919 71.601 18.7712 70.9448 18.47C70.3644 18.1966 69.8653 17.7765 69.4969 17.2511L70.6315 16.1187C70.9099 16.4753 71.2643 16.7655 71.6688 16.968C72.1082 17.167 72.587 17.2638 73.0692 17.2511C73.6568 17.2823 74.2351 17.0944 74.6922 16.7238C74.8917 16.5429 75.0487 16.3199 75.1518 16.0711C75.255 15.8222 75.3017 15.5536 75.2887 15.2845V14.4633C75.0178 14.7743 74.6792 15.019 74.2989 15.1786C73.8761 15.3551 73.4214 15.4427 72.9633 15.4358ZM73.3112 13.7998C73.5904 13.811 73.8689 13.7643 74.1292 13.6628C74.3895 13.5612 74.6261 13.4071 74.824 13.2099C75.1938 12.7762 75.3969 12.2249 75.3969 11.655C75.3969 11.085 75.1938 10.5337 74.824 10.1C74.6247 9.90524 74.3878 9.75321 74.1276 9.65325C73.8675 9.55329 73.5897 9.50749 73.3112 9.51869C73.0288 9.50718 72.7469 9.55358 72.4831 9.65504C72.2192 9.75651 71.9789 9.91088 71.7769 10.1087C71.3967 10.5357 71.1866 11.0875 71.1866 11.6593C71.1866 12.231 71.3967 12.7828 71.7769 13.2099C71.9789 13.4077 72.2192 13.562 72.4831 13.6635C72.7469 13.765 73.0288 13.8114 73.3112 13.7998Z" fill="#231F20"/>
<path d="M80.8967 15.7601C80.2879 15.7658 79.6848 15.6428 79.1268 15.3992C78.6 15.1673 78.134 14.8167 77.7653 14.3748L78.8674 13.2726C79.1184 13.5724 79.4348 13.8106 79.7921 13.9691C80.1495 14.1276 80.5385 14.202 80.9291 14.1868C81.7158 14.1868 82.1091 13.9707 82.1091 13.5104C82.113 13.4041 82.0889 13.2986 82.0392 13.2045C81.9895 13.1105 81.916 13.0311 81.826 12.9744C81.5987 12.8321 81.3519 12.7236 81.0934 12.6524L80.149 12.3758C79.8209 12.2829 79.5042 12.1539 79.2046 11.9911C78.9095 11.8315 78.6586 11.6014 78.4741 11.3212C78.2712 10.9904 78.1719 10.6066 78.1889 10.219C78.174 9.8961 78.2338 9.57415 78.3635 9.27808C78.4931 8.98201 78.6893 8.71978 78.9366 8.51172C79.4365 8.09967 80.1166 7.89292 80.9767 7.89148C82.1927 7.89148 83.1212 8.3237 83.7624 9.18814L82.6602 10.2903C82.4566 10.0276 82.194 9.8165 81.8936 9.6742C81.5932 9.53189 81.2636 9.46237 80.9313 9.47125C80.2109 9.47125 79.8508 9.67583 79.8508 10.085C79.849 10.1845 79.8745 10.2825 79.9244 10.3686C79.9743 10.4546 80.0467 10.5255 80.1339 10.5734C80.364 10.7045 80.6103 10.8047 80.8665 10.8716C81.1647 10.9559 81.4802 11.0467 81.8109 11.1483C82.1404 11.2475 82.4573 11.3846 82.7553 11.5567C83.0502 11.7268 83.3011 11.9637 83.4879 12.2483C83.6898 12.588 83.7882 12.9793 83.771 13.3742C83.7818 13.7045 83.7167 14.0329 83.5807 14.3341C83.4447 14.6354 83.2414 14.9014 82.9865 15.1117C82.4751 15.544 81.7785 15.7601 80.8967 15.7601Z" fill="#231F20"/>
<path d="M21.2458 10.7009C21.2681 10.7441 21.2789 10.7924 21.2771 10.841C21.2753 10.8896 21.261 10.937 21.2356 10.9784C21.2102 11.0199 21.1745 11.0542 21.132 11.0779C21.0895 11.1015 21.0416 11.1139 20.993 11.1137H1.13673C1.08644 11.1132 1.03715 11.0995 0.993869 11.0739C0.95059 11.0483 0.914852 11.0117 0.890279 10.9678C0.865705 10.9239 0.853173 10.8743 0.853946 10.824C0.854719 10.7737 0.868774 10.7245 0.894684 10.6814L4.98566 4.12032C5.01148 4.07943 5.04719 4.04571 5.0895 4.02229C5.13181 3.99887 5.17934 3.9865 5.2277 3.98633H17.693C17.7457 3.98616 17.7975 4.00062 17.8425 4.02808C17.8875 4.05555 17.924 4.09496 17.948 4.14193L21.2458 10.7009Z" fill="#D6E8B1" stroke="#231F20" stroke-width="0.153439" stroke-miterlimit="10"/>
<path d="M21.2458 12.7214C21.2676 12.7646 21.278 12.8126 21.2759 12.8609C21.2739 12.9092 21.2595 12.9562 21.2341 12.9974C21.2088 13.0386 21.1733 13.0725 21.1311 13.0961C21.0889 13.1197 21.0413 13.1321 20.993 13.132H19.424H3.14223H1.13673C1.08644 13.1316 1.03715 13.1179 0.993869 13.0923C0.95059 13.0666 0.914852 13.03 0.890279 12.9862C0.865705 12.9423 0.853173 12.8927 0.853946 12.8424C0.854719 12.7921 0.868774 12.7429 0.894684 12.6998L1.79803 11.2497C1.82384 11.2088 1.85956 11.1751 1.90187 11.1517C1.94418 11.1283 1.99171 11.1159 2.04007 11.1157H20.2625C20.3153 11.1156 20.367 11.13 20.412 11.1575C20.457 11.1849 20.4936 11.2243 20.5175 11.2713L21.2458 12.7214Z" fill="#B6CD86" stroke="#231F20" stroke-width="0.153439" stroke-miterlimit="10"/>
<path d="M21.2458 14.7378C21.2681 14.7811 21.2789 14.8293 21.2771 14.8779C21.2753 14.9266 21.261 14.9739 21.2356 15.0154C21.2102 15.0569 21.1745 15.0911 21.132 15.1148C21.0895 15.1385 21.0416 15.1508 20.993 15.1506H20.4397H1.88231H1.13673C1.08644 15.1502 1.03715 15.1365 0.993869 15.1108C0.95059 15.0852 0.914852 15.0486 0.890279 15.0047C0.865705 14.9609 0.853173 14.9113 0.853946 14.861C0.854719 14.8107 0.868774 14.7615 0.894684 14.7184L1.80018 13.2683C1.82554 13.227 1.86115 13.1929 1.90357 13.1694C1.94598 13.1459 1.99376 13.1338 2.04223 13.1343H3.14224H19.424H20.2625C20.3155 13.1341 20.3676 13.1488 20.4126 13.1766C20.4577 13.2045 20.4941 13.2445 20.5175 13.2921L21.2458 14.7378Z" fill="#98B263" stroke="#231F20" stroke-width="0.153439" stroke-miterlimit="10"/>
<path d="M20.993 17.169H1.13673C1.08644 17.1686 1.03715 17.1549 0.993869 17.1293C0.95059 17.1036 0.914852 17.067 0.890279 17.0232C0.865705 16.9793 0.853173 16.9297 0.853946 16.8794C0.854719 16.8291 0.868774 16.7799 0.894684 16.7368L1.79803 15.2867C1.82384 15.2458 1.85956 15.2121 1.90187 15.1887C1.94418 15.1652 1.99171 15.1529 2.04007 15.1527H20.2625C20.3153 15.1525 20.367 15.167 20.412 15.1945C20.457 15.2219 20.4936 15.2613 20.5175 15.3083L21.2458 16.7584C21.2676 16.8016 21.278 16.8496 21.2759 16.8979C21.2739 16.9462 21.2595 16.9932 21.2341 17.0344C21.2088 17.0755 21.1733 17.1095 21.1311 17.1331C21.0889 17.1567 21.0413 17.169 20.993 17.169Z" fill="#819E45" stroke="#231F20" stroke-width="0.153439" stroke-miterlimit="10"/>
</g>
<rect x="84.8018" y="0.60022" width="14.9895" height="6.60376" rx="3.30188" fill="#C8E486"/>
<path d="M87.685 5.4021V5.1586H88.5017C88.6715 5.1586 88.8051 5.11114 88.9025 5.01624C88.9999 4.92133 89.0486 4.8027 89.0486 4.66035C89.0486 4.56794 89.0274 4.48428 88.9849 4.40935C88.9425 4.33443 88.8813 4.27574 88.8014 4.23328C88.724 4.18832 88.6315 4.16585 88.5242 4.16585H87.685V3.92609H88.4829C88.6228 3.92609 88.7327 3.88863 88.8126 3.8137C88.895 3.73878 88.9362 3.63263 88.9362 3.49527C88.9362 3.35791 88.8925 3.25177 88.8051 3.17684C88.7177 3.10192 88.6003 3.06446 88.453 3.06446H87.685V2.8247H88.4605C88.6203 2.8247 88.7564 2.85342 88.8688 2.91086C88.9812 2.9683 89.0661 3.04573 89.1235 3.14313C89.181 3.24053 89.2097 3.35042 89.2097 3.4728C89.2097 3.61765 89.1723 3.74252 89.0973 3.84742C89.0224 3.94981 88.9125 4.02849 88.7677 4.08343L88.7939 3.99352C88.9612 4.04597 89.0911 4.13213 89.1835 4.25201C89.2784 4.37189 89.3258 4.51425 89.3258 4.67908C89.3258 4.81644 89.2921 4.94007 89.2247 5.04995C89.1598 5.15735 89.0636 5.24351 88.9362 5.30844C88.8114 5.37088 88.6603 5.4021 88.4829 5.4021H87.685ZM87.5089 5.4021V2.8247H87.7824V5.4021H87.5089ZM90.2249 5.4021V2.8247H90.4984V5.4021H90.2249ZM90.4048 5.4021V5.1511H91.922V5.4021H90.4048ZM90.4048 4.20331V3.9598H91.8021V4.20331H90.4048ZM90.4048 3.0757V2.8247H91.8995V3.0757H90.4048ZM93.415 5.4021V2.89588H93.6922V5.4021H93.415ZM92.5084 3.0757V2.8247H94.5988V3.0757H92.5084ZM94.8513 5.4021L95.9077 2.8247H96.1138L97.159 5.4021H96.863L95.9527 3.1244H96.0613L95.1435 5.4021H94.8513ZM95.3345 4.73153V4.48802H96.6832V4.73153H95.3345Z" fill="black"/>
<defs>
<clipPath id="clip0_74_12899">
<rect width="82.9865" height="14.9981" fill="white" transform="translate(0.775818 3.9021)"/>
</clipPath>
</defs>
</svg>
