<svg width="338" height="414" viewBox="0 0 338 414" fill="none" xmlns="http://www.w3.org/2000/svg">
<g clip-path="url(#clip0_86_13229)">
<path opacity="0.72" d="M315.824 60.5916V95.9357C315.824 96.6902 315.64 97.4332 315.288 98.1006C314.936 98.7679 314.427 99.3395 313.805 99.7658C313.182 100.192 312.465 100.46 311.716 100.547C310.967 100.634 310.207 100.537 309.504 100.264C308.335 99.8208 307.145 99.3663 305.911 98.9334C304.677 98.5005 303.454 98.0677 302.177 97.6456C292.032 94.3714 281.691 91.7365 271.216 89.7565C263.349 88.2089 254.929 86.8346 246.055 85.6658C227.097 83.2036 208.026 81.7082 188.916 81.1856V46.5556C188.916 44.2347 189.391 41.9383 190.31 39.8073C191.23 37.6763 192.575 35.7555 194.263 34.1627C195.951 32.5699 197.946 31.3386 200.127 30.5443C202.308 29.7501 204.628 29.4095 206.945 29.5436C220.71 30.3553 233.827 31.5998 246.055 33.2339C268.781 36.2315 288.563 40.5386 303.779 45.744L305.943 46.4907H306.052C308.936 47.5463 311.423 49.468 313.172 51.9924C314.922 54.5168 315.848 57.5203 315.824 60.5916Z" fill="#FBC9BD" stroke="#231F20" stroke-width="0.81164" stroke-miterlimit="10"/>
<path d="M211.23 39.1533C223.427 39.9541 235.093 41.112 246.055 42.573C266.757 45.3001 284.96 49.0661 299.537 53.6871" stroke="#231F20" stroke-width="1.08219" stroke-miterlimit="10"/>
<path d="M211.23 53.6875C223.427 54.4883 235.093 55.6463 246.055 57.1072C266.757 59.8343 284.96 63.6003 299.537 68.2213" stroke="#231F20" stroke-width="1.08219" stroke-miterlimit="10"/>
<path d="M211.23 68.2212C223.427 69.022 235.093 70.18 246.055 71.6409C266.757 74.368 284.96 78.134 299.537 82.7549" stroke="#231F20" stroke-width="1.08219" stroke-miterlimit="10"/>
<path d="M237.571 60.018C239.758 60.018 241.532 58.2447 241.532 56.0572C241.532 53.8697 239.758 52.0964 237.571 52.0964C235.383 52.0964 233.61 53.8697 233.61 56.0572C233.61 58.2447 235.383 60.018 237.571 60.018Z" fill="white" stroke="#231F20" stroke-width="1.08219" stroke-miterlimit="10"/>
<path d="M273.889 80.3847C276.077 80.3847 277.85 78.6114 277.85 76.4239C277.85 74.2365 276.077 72.4631 273.889 72.4631C271.702 72.4631 269.928 74.2365 269.928 76.4239C269.928 78.6114 271.702 80.3847 273.889 80.3847Z" fill="white" stroke="#231F20" stroke-width="1.08219" stroke-miterlimit="10"/>
<path d="M289.721 55.2239C291.909 55.2239 293.682 53.4505 293.682 51.263C293.682 49.0756 291.909 47.3022 289.721 47.3022C287.534 47.3022 285.761 49.0756 285.761 51.263C285.761 53.4505 287.534 55.2239 289.721 55.2239Z" fill="white" stroke="#231F20" stroke-width="1.08219" stroke-miterlimit="10"/>
<path d="M130.781 259.487L43.5782 307.622L33.6762 285.297L125.283 247.572L130.781 259.487Z" fill="#C8DFF4" stroke="#231F20" stroke-width="0.541093" stroke-miterlimit="10"/>
<path d="M130.142 258.101L145.553 250.515L140.661 241.273L125.554 248.145L130.142 258.101Z" fill="#C8DFF4" stroke="#231F20" stroke-width="0.541093" stroke-miterlimit="10"/>
<path d="M195.734 191.969C173.646 202.715 157.738 218.461 153.452 232.129C166.558 238.319 189.933 235.819 213.146 224.554C235.233 213.808 251.141 198.062 255.427 184.394C242.322 178.182 218.946 180.682 195.734 191.969Z" fill="#C8DFF4" stroke="#231F20" stroke-width="0.616846" stroke-miterlimit="10"/>
<path d="M195.734 191.969C173.646 202.715 157.738 218.461 153.452 232.129C166.558 238.319 189.933 235.819 213.146 224.554C235.233 213.808 251.141 198.062 255.427 184.394C242.322 178.182 218.946 180.682 195.734 191.969Z" fill="#C8DFF4" stroke="#231F20" stroke-width="0.768352" stroke-miterlimit="10"/>
<path d="M195.734 191.969C173.646 202.715 157.738 218.461 153.452 232.129C166.558 238.319 189.933 235.819 213.146 224.554C235.233 213.808 251.141 198.062 255.427 184.394C242.322 178.182 218.946 180.682 195.734 191.969Z" fill="#C8DFF4" stroke="#231F20" stroke-width="0.768352" stroke-miterlimit="10"/>
<path d="M195.734 191.969C173.646 202.715 157.738 218.461 153.452 232.129C166.558 238.319 189.933 235.819 213.146 224.554C235.233 213.808 251.141 198.062 255.427 184.394C242.322 178.182 218.946 180.682 195.734 191.969Z" fill="#C8DFF4" stroke="#231F20" stroke-width="0.616846" stroke-miterlimit="10"/>
<path d="M263.976 165.553C264.49 166.62 264.924 167.723 265.275 168.854C266.338 172.315 266.677 175.958 266.27 179.556C265.839 183.427 264.825 187.211 263.262 190.779C262.483 192.632 261.597 194.438 260.611 196.19C260.437 196.507 260.253 196.821 260.059 197.131C259.647 197.845 259.215 198.549 258.76 199.295C258.511 199.696 258.23 200.096 257.959 200.497C257.429 201.287 256.877 202.088 256.271 202.888C255.946 203.343 255.611 203.787 255.265 204.23C254.918 204.674 254.724 204.923 254.442 205.312C254.161 205.702 253.804 206.113 253.468 206.514C253.133 206.914 252.808 207.293 252.462 207.693C251.12 209.273 249.67 210.81 248.133 212.347C247.127 213.353 246.088 214.338 245.005 215.323C244.648 215.658 244.28 215.983 243.923 216.307L242.841 217.281C242.084 217.931 241.326 218.558 240.547 219.208C239.768 219.857 238.75 220.615 237.841 221.372C237.387 221.718 236.932 222.065 236.456 222.454L235.039 223.471C233.123 224.835 231.143 226.145 229.108 227.432C228.297 227.93 227.485 228.45 226.641 228.937C226.067 229.272 225.504 229.608 224.931 229.921C224.357 230.235 223.567 230.711 222.875 231.079C222.496 231.296 222.106 231.512 221.728 231.696L219.985 232.605C219.217 233.006 218.438 233.395 217.648 233.763C217.096 234.044 216.566 234.304 215.981 234.564C215.397 234.824 214.899 235.094 214.304 235.332C213.503 235.7 212.713 236.047 211.923 236.414C211.133 236.782 210.538 236.988 209.845 237.28L208.287 237.897C207.767 238.103 207.205 238.276 206.729 238.471C186.427 246.046 166.688 247.258 152.673 242.377C149.079 241.158 145.703 239.372 142.674 237.085C139.706 234.814 137.294 231.898 135.618 228.558C135.564 228.471 135.521 228.385 135.477 228.298C135.063 227.426 134.702 226.53 134.395 225.614C127.458 205.399 147.944 176.786 181.914 160.25C217.291 142.773 254.085 145.24 263.976 165.553ZM186.275 169.265C155.768 184.091 137.057 208.494 144.46 223.764C144.776 224.416 145.138 225.045 145.542 225.647C146.094 226.468 146.717 227.239 147.403 227.952C149.152 229.687 151.192 231.101 153.431 232.129C166.525 238.319 189.911 235.819 213.124 224.554C235.212 213.808 251.131 198.062 255.405 184.383C256.425 181.345 256.758 178.118 256.379 174.935C256.379 174.719 256.325 174.503 256.293 174.297C256.041 172.829 255.582 171.404 254.929 170.066C247.527 154.774 216.782 154.439 186.275 169.265Z" fill="#C8DFF4" stroke="#231F20" stroke-width="0.616846" stroke-miterlimit="10"/>
<path d="M190.68 178.334C167.099 189.794 150.574 206.968 147.706 221.231C147.222 223.442 147.127 225.72 147.425 227.963C149.173 229.698 151.214 231.112 153.453 232.14C157.781 218.472 173.646 202.726 195.734 191.98C218.947 180.693 242.322 178.193 255.427 184.405C256.449 181.363 256.781 178.132 256.401 174.946C256.092 174.623 255.767 174.316 255.427 174.026C244.086 163.995 217.291 165.347 190.68 178.334Z" fill="#A0B3C2" stroke="#231F20" stroke-width="0.616846" stroke-miterlimit="10"/>
<path d="M186.275 169.265C155.768 184.102 137.047 208.494 144.47 223.764C144.782 224.418 145.144 225.048 145.553 225.647C146.105 226.468 146.728 227.239 147.414 227.952C147.116 225.709 147.211 223.431 147.695 221.221C150.563 206.957 167.088 189.783 190.669 178.323C217.28 165.391 244.075 163.995 255.405 173.994C255.708 174.07 256.004 174.168 256.293 174.286C256.034 172.813 255.576 171.382 254.929 170.033C247.527 154.774 216.782 154.428 186.275 169.265Z" fill="#C8DFF4" stroke="#231F20" stroke-width="0.616846" stroke-miterlimit="10"/>
<path d="M195.734 191.969C173.646 202.715 157.738 218.461 153.452 232.129C166.558 238.319 189.933 235.819 213.146 224.554C235.233 213.808 251.141 198.062 255.427 184.394C242.322 178.182 218.946 180.682 195.734 191.969Z" fill="white" stroke="#231F20" stroke-width="0.616846" stroke-miterlimit="10"/>
<path d="M265.275 168.854C266.338 172.315 266.677 175.958 266.27 179.556C265.839 183.427 264.825 187.211 263.262 190.779C262.483 192.632 261.597 194.438 260.611 196.19C260.437 196.507 260.254 196.821 260.059 197.131C259.647 197.845 259.215 198.549 258.76 199.295C258.511 199.696 258.23 200.096 257.959 200.497C257.429 201.287 256.877 202.087 256.271 202.888C255.946 203.343 255.611 203.786 255.265 204.23C254.918 204.674 254.724 204.923 254.442 205.312C254.161 205.702 253.804 206.113 253.468 206.514C253.133 206.914 252.808 207.293 252.462 207.693C251.12 209.273 249.67 210.81 248.133 212.347C247.127 213.353 246.088 214.338 245.005 215.323C244.659 215.647 244.302 215.983 243.923 216.307L242.841 217.281C242.094 217.931 241.326 218.569 240.547 219.208C239.768 219.846 238.75 220.614 237.841 221.372C237.387 221.729 236.932 222.075 236.456 222.454L235.039 223.471C232.384 225.383 229.584 227.205 226.641 228.937C226.067 229.272 225.504 229.607 224.931 229.921C224.357 230.235 223.567 230.711 222.875 231.079C222.496 231.296 222.106 231.512 221.728 231.696L219.985 232.605C219.217 233.006 218.438 233.395 217.648 233.763C217.096 234.044 216.566 234.304 215.981 234.564C215.397 234.824 214.899 235.094 214.304 235.332C213.503 235.7 212.713 236.047 211.923 236.414L217.702 249.758L221.749 259.075C223.557 258.307 225.353 257.474 227.16 256.597C260.827 240.235 281.27 211.979 274.863 191.796L273.164 187.77L265.275 168.854Z" fill="#C8DFF4" stroke="#231F20" stroke-width="0.768352" stroke-miterlimit="10"/>
<path d="M135.51 228.331L143.605 247.648L145.282 251.641C155.195 270.19 188.353 273.101 221.63 258.816L217.583 249.498L211.804 236.155C211.111 236.458 210.419 236.728 209.726 237.021L208.168 237.637C207.648 237.843 207.086 238.016 206.61 238.211C186.308 245.786 166.569 246.998 152.554 242.118C148.96 240.898 145.584 239.112 142.555 236.826C139.595 234.563 137.186 231.658 135.51 228.331Z" fill="#A0B3C2" stroke="#231F20" stroke-width="0.616846" stroke-miterlimit="10"/>
<path opacity="0.68" d="M142.739 245.602L38.5027 296.173L33.6762 285.297L125.283 247.572L125.554 248.145L140.661 241.273L142.739 245.602Z" fill="#231F20" stroke="#231F20" stroke-width="0.595203" stroke-miterlimit="10"/>
<g opacity="0.72">
<path d="M179.576 98.5548C179.381 94.4322 178.757 90.3412 177.715 86.3477C177.239 86.3477 175.875 81.3913 175.648 80.9368C170.356 70.6344 158.863 66.3922 134.525 63.2214C131.733 62.8607 128.768 62.4999 125.63 62.1392C119.407 61.4682 112.481 60.8081 104.776 60.1263H104.624C71.5526 57.5182 49.1189 52.0749 33.9142 45.7765L33.6437 45.6575C29.9967 44.4022 26.6094 42.1079 23.5144 40.7552C21.424 39.5871 19.3974 38.3083 17.4433 36.9243C14.405 34.8041 11.62 32.3422 9.14295 29.587C3.36408 23.0939 1.83819 19.6634 0.647782 16.8713V71.446C0.647782 70.2448 0.647782 72.723 0.647782 75.0172C0.388057 93.9771 0.647782 112.504 0.647782 123.716V123.986C0.647782 124.635 0.647782 128.315 0.647782 129.246C0.647782 133.975 3.63462 138.52 9.14295 142.762C13.589 146.042 18.4143 148.775 23.5144 150.9C24.9321 151.517 26.4038 152.134 27.9514 152.74C35.639 155.669 43.5041 158.109 51.4997 160.045C68.9818 164.222 86.7271 167.208 104.613 168.983V168.745C105.761 168.951 106.886 169.146 108.001 169.319C113.715 169.889 119.576 170.376 125.586 170.78C128.519 170.986 131.484 171.159 134.482 171.321C140.791 171.656 147.241 171.905 153.788 172.046C159.686 171.137 164.209 169.406 167.705 166.852C171.806 163.865 174.479 159.742 176.233 154.471C176.233 154.471 177.315 147.892 177.867 147.902C178.681 143.078 179.176 138.205 179.349 133.315C179.587 128.488 179.685 123.218 179.771 117.493C179.771 116.411 179.771 115.329 179.771 114.322C179.771 112.937 179.771 111.584 179.771 110.275C179.89 105.968 179.804 102.083 179.576 98.5548Z" fill="#E0E8D6"/>
<path d="M104.592 136.529H104.419M179.576 98.5548C179.381 94.4322 178.757 90.3412 177.715 86.3477C177.239 86.3477 175.875 81.3913 175.648 80.9368C170.356 70.6344 158.863 66.3922 134.525 63.2214C131.733 62.8607 128.768 62.4999 125.63 62.1392C119.407 61.4682 112.481 60.8081 104.776 60.1263H104.624C71.5526 57.5182 49.1189 52.0749 33.9142 45.7765L33.6437 45.6575C29.9967 44.4022 26.6094 42.1079 23.5144 40.7552C21.424 39.5871 19.3974 38.3083 17.4433 36.9243C14.405 34.8041 11.62 32.3422 9.14295 29.587C3.36408 23.0939 1.83819 19.6634 0.647782 16.8713V71.446C0.647782 70.2448 0.647782 72.723 0.647782 75.0172C0.388057 93.9771 0.647782 112.504 0.647782 123.716V123.986C0.647782 124.635 0.647782 128.315 0.647782 129.246C0.647782 133.975 3.63462 138.52 9.14295 142.762C13.589 146.042 18.4143 148.775 23.5144 150.9C24.9321 151.517 26.4038 152.134 27.9514 152.74C35.639 155.669 43.5041 158.108 51.4997 160.045C68.9818 164.222 86.7271 167.208 104.613 168.983V168.745C105.761 168.951 106.886 169.146 108.001 169.319C113.715 169.889 119.576 170.376 125.586 170.78C128.519 170.985 131.484 171.159 134.482 171.321C140.791 171.656 147.241 171.905 153.788 172.046C159.686 171.137 164.209 169.406 167.705 166.852C171.806 163.865 174.479 159.742 176.233 154.471C176.233 154.471 177.315 147.892 177.867 147.902C178.681 143.078 179.176 138.205 179.349 133.315C179.587 128.488 179.685 123.218 179.771 117.493C179.771 116.411 179.771 115.329 179.771 114.322C179.771 112.937 179.771 111.584 179.771 110.275C179.89 105.968 179.804 102.083 179.576 98.5548Z" stroke="#231F20" stroke-width="0.81164" stroke-miterlimit="10"/>
</g>
<path opacity="0.72" d="M125.597 291.822V340.661C125.598 342.082 125.303 343.486 124.732 344.787C124.161 346.087 123.326 347.254 122.28 348.215C121.234 349.176 120 349.908 118.656 350.367C117.312 350.825 115.887 350.999 114.472 350.877C111.132 350.589 107.838 350.271 104.592 349.925C85.2723 348.045 66.1237 344.699 47.3117 339.915C43.7044 338.962 40.3099 337.97 37.1283 336.939C32.4998 335.472 27.9487 333.77 23.4927 331.842C18.3878 329.71 13.5588 326.971 9.11048 323.682C7.45269 322.493 5.94791 321.105 4.63023 319.548C2.00052 316.529 0.615311 313.39 0.615311 310.165V248.903C1.32955 249.985 2.10874 252.636 3.7212 254.952C5.25921 256.975 7.08172 258.765 9.13213 260.266C13.5787 263.542 18.404 266.271 23.5036 268.393C33.7741 272.686 44.4073 276.054 55.2766 278.457C71.5434 282.136 88.0197 284.817 104.613 286.487C109.386 286.985 114.277 287.439 119.255 287.829L122.123 288.056C123.07 288.133 123.953 288.562 124.596 289.26C125.24 289.958 125.597 290.873 125.597 291.822Z" fill="#FCE2D5" stroke="#231F20" stroke-width="0.81164" stroke-miterlimit="10"/>
<path opacity="0.72" d="M246.109 380.475V397.292C246.104 400.215 245.023 403.034 243.073 405.211C241.123 407.388 238.441 408.772 235.536 409.099C220.97 410.711 205.333 411.804 189.002 412.345C186.026 412.432 183.018 412.508 179.977 412.551L176.373 412.605C173.906 412.605 171.424 412.605 168.928 412.605C161.179 412.605 153.564 412.472 146.083 412.205C142.996 412.101 140.07 410.801 137.923 408.58C135.777 406.358 134.577 403.39 134.579 400.301V383.397C134.579 381.805 134.897 380.229 135.516 378.763C136.135 377.296 137.042 375.969 138.184 374.859C139.325 373.749 140.677 372.879 142.16 372.301C143.643 371.723 145.227 371.448 146.819 371.493C154.033 371.731 161.403 371.854 168.928 371.861C171.431 371.861 173.913 371.861 176.373 371.861L179.977 371.807C183.018 371.807 186.026 371.688 189.002 371.601C204.402 371.136 219.152 370.129 232.982 368.668C234.637 368.498 236.309 368.675 237.891 369.19C239.473 369.705 240.929 370.546 242.166 371.659C243.403 372.771 244.393 374.131 245.072 375.649C245.751 377.168 246.105 378.812 246.109 380.475Z" fill="#DCEBEB" stroke="#231F20" stroke-width="0.81164" stroke-miterlimit="10"/>
<path opacity="0.72" d="M337.078 176.223V261.034C337.078 268.61 329.362 275.774 315.824 281.975C313.082 283.223 310.11 284.431 306.907 285.6L305.911 285.232V285.968C294.868 289.79 283.562 292.803 272.082 294.983C263.965 296.595 255.265 298.023 246.109 299.236C236.738 300.48 217.702 301.746 201.87 302.666C198.588 302.856 195.301 302.374 192.213 301.249C189.124 300.123 186.298 298.379 183.907 296.122C181.517 293.865 179.612 291.144 178.311 288.125C177.01 285.106 176.34 281.853 176.341 278.566V269.335C177.553 269.335 177.553 267.224 176.341 267.17V239.683C176.342 234.249 178.442 229.025 182.203 225.103C185.964 221.181 191.094 218.863 196.524 218.634H196.599C214.174 217.898 230.829 216.47 246.109 214.425C252.721 213.559 259.096 212.574 265.145 211.492C278.852 209.186 292.35 205.78 305.511 201.308L305.943 201.46V201.157C309.551 199.866 312.855 198.534 315.856 197.164C324.947 192.997 331.418 188.409 334.686 183.539C336.2 181.396 337.034 178.847 337.078 176.223Z" fill="#F7D470" stroke="#231F20" stroke-width="0.81164" stroke-miterlimit="10"/>
<path opacity="0.72" d="M337.078 310.166V363.658C337.079 364.667 336.945 365.672 336.678 366.645C334.935 373.138 327.576 379.209 315.824 384.598H315.737C314.674 385.073 313.508 385.275 312.346 385.184C311.185 385.093 310.065 384.713 309.088 384.078C308.111 383.443 307.309 382.574 306.754 381.55C306.199 380.525 305.909 379.378 305.911 378.213V339.926C305.904 338.528 306.318 337.161 307.1 336.002C307.882 334.844 308.995 333.948 310.294 333.433C312.231 332.664 314.082 331.885 315.824 331.084C320.25 329.139 324.452 326.718 328.356 323.866C330.072 322.588 331.653 321.137 333.074 319.537C335.693 316.529 337.078 313.39 337.078 310.166Z" fill="#FDDBCE" stroke="#231F20" stroke-width="0.81164" stroke-miterlimit="10"/>
<path opacity="0.72" d="M337.078 310.165C337.078 313.412 335.693 316.529 333.063 319.548C331.642 321.148 330.061 322.598 328.345 323.877V296.465C334.005 300.761 337.078 305.371 337.078 310.165Z" fill="#D3B3A9" stroke="#231F20" stroke-width="0.81164" stroke-miterlimit="10"/>
<path opacity="0.72" d="M337.078 176.223C337.078 179.47 335.693 182.586 333.063 185.606C331.642 187.206 330.061 188.656 328.345 189.934V162.523C334.005 166.819 337.078 171.429 337.078 176.223Z" fill="#D3B3A9" stroke="#231F20" stroke-width="0.81164" stroke-miterlimit="10"/>
<path opacity="0.72" d="M0.615311 14.5121C0.615311 11.2655 2.00052 8.14883 4.63023 5.12953C6.05131 3.52952 7.63231 2.07906 9.34856 0.800781V29.5761C3.93763 23.9596 0.615311 19.3062 0.615311 14.5121Z" fill="#BABFB2" stroke="#231F20" stroke-width="0.81164" stroke-miterlimit="10"/>
<path opacity="0.72" d="M0.615311 246.706C0.615311 243.46 2.00052 240.343 4.63023 237.324C6.05131 235.724 7.63231 234.273 9.34856 232.995V260.396C3.69955 256.11 0.615311 251.5 0.615311 246.706Z" fill="#D3B3A9" stroke="#231F20" stroke-width="0.81164" stroke-miterlimit="10"/>
<path d="M70.4597 88.9989C56.586 86.2069 42.3228 82.2893 30.527 76.8135" stroke="#231F20" stroke-width="1.08219" stroke-miterlimit="10"/>
<path d="M30.527 81.6292C39.7421 85.7433 49.3262 88.9754 59.1508 91.2822" stroke="#231F20" stroke-width="1.08219" stroke-miterlimit="10"/>
<path d="M36.0894 102.84C34.1848 102.072 32.3234 101.271 30.527 100.438" stroke="#231F20" stroke-width="1.08219" stroke-miterlimit="10"/>
<path d="M30.527 114.485C52.82 124.852 84.0952 129.635 104.592 131.8" stroke="#231F20" stroke-width="1.08219" stroke-miterlimit="10"/>
<path d="M30.527 119.246C52.7443 129.581 83.9004 134.397 104.408 136.561" stroke="#231F20" stroke-width="1.08219" stroke-miterlimit="10"/>
<path d="M130.954 96.7258C130.954 96.7258 94.6032 93.4143 84.7878 91.7585" stroke="#231F20" stroke-width="1.08219" stroke-miterlimit="10"/>
<path d="M119.385 119.246C119.385 119.246 83.2727 116.562 67.5485 112.32" stroke="#231F20" stroke-width="1.08219" stroke-miterlimit="10"/>
<path d="M59.1509 105.578C59.1509 105.578 86.6817 112.547 100.49 113.37" stroke="#231F20" stroke-width="1.08219" stroke-miterlimit="10"/>
<path d="M328.356 205.496V237.962C328.358 238.122 328.322 238.28 328.251 238.423C328.179 238.567 328.074 238.69 327.944 238.784C325.545 240.544 323.012 242.114 320.369 243.481C320.219 243.567 320.091 243.687 319.997 243.832C319.903 243.977 319.845 244.142 319.828 244.314L318.616 260.904C318.601 261.123 318.515 261.331 318.372 261.497C318.228 261.664 318.035 261.779 317.821 261.826C317.607 261.874 317.383 261.851 317.183 261.761C316.983 261.671 316.818 261.518 316.711 261.326C314.893 258.08 311.982 252.799 309.861 249.087C309.744 248.873 309.552 248.71 309.323 248.629C309.094 248.547 308.842 248.552 308.616 248.643C307.718 248.989 306.809 249.325 305.868 249.66V249.963L305.435 249.812C293.265 253.968 280.794 257.184 268.132 259.432C267.985 259.452 267.835 259.441 267.692 259.4C267.549 259.359 267.416 259.29 267.301 259.195C267.187 259.101 267.093 258.984 267.025 258.851C266.958 258.719 266.918 258.574 266.909 258.426V225.571C266.911 225.332 266.996 225.102 267.15 224.92C267.305 224.738 267.518 224.616 267.753 224.575C280.545 222.301 293.143 219.045 305.435 214.835L305.868 214.987V214.684C309.475 213.4 312.779 212.069 315.781 210.691C319.596 208.99 323.254 206.955 326.711 204.609C326.867 204.485 327.055 204.41 327.253 204.393C327.451 204.375 327.65 204.416 327.825 204.511C328 204.605 328.144 204.749 328.238 204.924C328.332 205.099 328.373 205.298 328.356 205.496Z" fill="white" stroke="#231F20" stroke-width="1.08219" stroke-miterlimit="10"/>
<path d="M221.62 242.183V263.199C221.619 263.301 221.643 263.402 221.688 263.494C221.733 263.586 221.798 263.666 221.879 263.729C223.442 264.868 225.088 265.888 226.803 266.781C226.903 266.834 226.988 266.912 227.05 267.006C227.113 267.1 227.15 267.209 227.16 267.322L227.896 278.144C227.909 278.285 227.967 278.418 228.06 278.524C228.154 278.631 228.278 278.705 228.416 278.736C228.554 278.767 228.699 278.754 228.829 278.698C228.959 278.642 229.068 278.547 229.141 278.425C230.309 276.261 232.203 272.884 233.578 270.482C233.655 270.347 233.779 270.244 233.926 270.192C234.073 270.14 234.233 270.143 234.378 270.2L236.164 270.85V271.044L236.445 270.947C244.335 273.648 252.421 275.736 260.632 277.191C260.728 277.209 260.826 277.205 260.921 277.18C261.015 277.156 261.102 277.111 261.177 277.049C261.253 276.988 261.313 276.91 261.356 276.823C261.398 276.735 261.421 276.639 261.422 276.542V255.169C261.42 255.015 261.365 254.866 261.267 254.748C261.168 254.63 261.032 254.549 260.881 254.519C252.586 253.062 244.416 250.964 236.445 248.243C236.35 248.269 236.256 248.301 236.164 248.34V248.145C233.837 247.301 231.695 246.446 229.736 245.548C227.262 244.445 224.891 243.127 222.648 241.609C222.546 241.541 222.428 241.502 222.307 241.497C222.185 241.492 222.064 241.521 221.958 241.58C221.851 241.64 221.763 241.727 221.703 241.834C221.644 241.94 221.615 242.061 221.62 242.183Z" fill="white" stroke="#231F20" stroke-width="1.08219" stroke-miterlimit="10"/>
<path d="M293.401 241.468C294.967 241.468 296.236 239.613 296.236 237.323C296.236 235.034 294.967 233.179 293.401 233.179C291.835 233.179 290.566 235.034 290.566 237.323C290.566 239.613 291.835 241.468 293.401 241.468Z" fill="#231F20" stroke="#231F20" stroke-width="1.08219" stroke-miterlimit="10"/>
<path d="M231.565 260.699C232.563 260.699 233.372 259.512 233.372 258.047C233.372 256.583 232.563 255.396 231.565 255.396C230.567 255.396 229.757 256.583 229.757 258.047C229.757 259.512 230.567 260.699 231.565 260.699Z" fill="#231F20" stroke="#231F20" stroke-width="1.08219" stroke-miterlimit="10"/>
<path d="M238.577 262.723C239.575 262.723 240.385 261.536 240.385 260.071C240.385 258.607 239.575 257.42 238.577 257.42C237.579 257.42 236.77 258.607 236.77 260.071C236.77 261.536 237.579 262.723 238.577 262.723Z" fill="#231F20" stroke="#231F20" stroke-width="1.08219" stroke-miterlimit="10"/>
<path d="M245.579 264.735C246.577 264.735 247.386 263.548 247.386 262.084C247.386 260.62 246.577 259.433 245.579 259.433C244.581 259.433 243.772 260.62 243.772 262.084C243.772 263.548 244.581 264.735 245.579 264.735Z" fill="#231F20" stroke="#231F20" stroke-width="1.08219" stroke-miterlimit="10"/>
<path d="M303.086 238.33C304.652 238.33 305.922 236.474 305.922 234.185C305.922 231.896 304.652 230.041 303.086 230.041C301.521 230.041 300.251 231.896 300.251 234.185C300.251 236.474 301.521 238.33 303.086 238.33Z" fill="#231F20" stroke="#231F20" stroke-width="1.08219" stroke-miterlimit="10"/>
<path d="M311.82 234.185C313.386 234.185 314.655 232.329 314.655 230.04C314.655 227.751 313.386 225.896 311.82 225.896C310.254 225.896 308.984 227.751 308.984 230.04C308.984 232.329 310.254 234.185 311.82 234.185Z" fill="#231F20" stroke="#231F20" stroke-width="1.08219" stroke-miterlimit="10"/>
<path d="M35.0613 298.413C37.6612 298.413 39.7688 294.474 39.7688 289.615C39.7688 284.756 37.6612 280.817 35.0613 280.817C32.4614 280.817 30.3538 284.756 30.3538 289.615C30.3538 294.474 32.4614 298.413 35.0613 298.413Z" fill="#231F20" stroke="#231F20" stroke-width="1.08219" stroke-miterlimit="10"/>
<path d="M24.7264 310.836C25.3941 310.012 26.2463 309.356 27.2142 308.922C28.1822 308.487 29.2387 308.287 30.2985 308.336C31.3583 308.386 32.3915 308.684 33.3148 309.207C34.238 309.729 35.0254 310.462 35.6132 311.345L36.4682 312.633C37.0261 313.48 37.7674 314.191 38.6373 314.713C39.5072 315.235 40.4834 315.554 41.4935 315.648C42.5036 315.741 43.5219 315.607 44.4728 315.253C45.4237 314.9 46.283 314.337 46.987 313.607L60.7632 299.105C61.4505 298.381 62.2898 297.817 63.2208 297.455C64.1518 297.093 65.1514 296.942 66.1477 297.012C67.1441 297.083 68.1125 297.373 68.9834 297.862C69.8543 298.351 70.6061 299.027 71.1847 299.841L89.0949 325.089C89.8702 326.18 90.3043 327.477 90.3419 328.815C90.3797 330.154 90.0193 331.473 89.3067 332.606C88.594 333.74 87.561 334.636 86.3385 335.182C85.116 335.728 83.759 335.899 82.4394 335.673C66.0443 332.848 40.9917 327.773 27.0748 321.258C26.1402 320.822 25.318 320.177 24.6712 319.374C24.0244 318.57 23.5702 317.629 23.3435 316.623C23.1168 315.617 23.1236 314.572 23.3633 313.569C23.603 312.566 24.0693 311.631 24.7264 310.836Z" fill="#231F20" stroke="#231F20" stroke-width="1.08219" stroke-miterlimit="10"/>
<path d="M131.647 208.992C132.762 203.993 134.561 199.171 136.993 194.664" stroke="#231F20" stroke-width="0.616846" stroke-miterlimit="10"/>
<path d="M140.932 189.318C143.959 185.703 147.212 182.284 150.671 179.08" stroke="#231F20" stroke-width="0.616846" stroke-miterlimit="10"/>
<path d="M190.669 197.813C200.409 192.694 210.311 188.322 221.208 186.32" stroke="#231F20" stroke-width="0.616846" stroke-miterlimit="10"/>
<path d="M156.288 230.398V230.874C158.206 227.597 160.415 224.501 162.889 221.621" stroke="#231F20" stroke-width="0.616846" stroke-miterlimit="10"/>
<path d="M99.1376 279.984C104.505 277.321 109.779 274.486 114.959 271.478" stroke="#231F20" stroke-width="0.616846" stroke-miterlimit="10"/>
</g>
<defs>
<clipPath id="clip0_86_13229">
<rect width="337.382" height="413.016" fill="white" transform="translate(0.10672)"/>
</clipPath>
</defs>
</svg>
